#!OML:ASF H:\Terrain\Patient Classification 1\Terrain2\Thursday\justin.ASF
:FULLY-SPECIFIED
:DEGREES
3145
root -0.347238 23.8281 0.269754 1072.9 251.925 368.195
lowerback 7.7193 0.389534 3.31088
upperback 1.69636 0.757657 3.62471
thorax -2.57719 0.306309 1.81523
lowerneck -14.1338 -2.19537 -11.0529
upperneck 37.1483 -4.27296 6.33261
head 15.9236 -3.11444 3.79672
rclavicle -3.67752e-014 3.97569e-014
rhumerus -30.6568 0.416594 -84.2665
rradius 43.6468
rwrist -17.2881
rhand -20.3832 11.55
rfingers 7.12502
rthumb 5.96983 -18.3459
lclavicle -3.67752e-014 3.97569e-014
lhumerus -35.0469 3.70993 89.5827
lradius 24.479
lwrist -3.60055
lhand -15.9884 20.297
lfingers 7.12502
lthumb 10.2114 50.0291
rfemur -10.2693 4.04985 22.0686
rtibia 30.0714
rfoot -15.241 19.3798
rtoes 25.0088
lfemur -12.7859 -12.3826 -12.6663
ltibia 28.1602
lfoot -8.44395 -19.2227
ltoes 20.2043
3146
root -0.37386 23.8296 0.281663 1072.13 250.718 369.047
lowerback 7.67237 0.486194 3.3279
upperback 1.73571 0.878937 3.76257
thorax -2.51303 0.364083 1.93734
lowerneck -13.9557 -2.2907 -10.7936
upperneck 36.997 -4.49832 6.23323
head 15.8205 -3.18925 3.66023
rclavicle 1.82882e-014 4.92986e-014
rhumerus -30.925 0.0717704 -84.1422
rradius 43.4767
rwrist -17.1308
rhand -19.8482 11.6533
rfingers 7.12502
rthumb 6.48635 -18.2274
lclavicle 1.82882e-014 4.92986e-014
lhumerus -35.1177 3.56366 89.6639
lradius 24.384
lwrist -4.03809
lhand -15.5049 20.2254
lfingers 7.12502
lthumb 10.6777 49.934
rfemur -10.1513 5.10458 22.4985
rtibia 30.0791
rfoot -15.6326 19.5196
rtoes 24.8375
lfemur -12.4422 -11.7218 -12.228
ltibia 28.1627
lfoot -9.15939 -18.9537
ltoes 19.3321
3147
root -0.398377 23.8193 0.314572 1071.98 249.65 369.241
lowerback 7.72897 0.501354 3.18897
upperback 1.71613 0.889966 3.97077
thorax -2.57049 0.366646 2.23064
lowerneck -13.7453 -2.31002 -10.8943
upperneck 36.9557 -4.56645 6.25087
head 15.7609 -3.2432 3.67062
rclavicle 2.22639e-014 -3.10104e-014
rhumerus -31.196 0.263186 -83.8484
rradius 43.2698
rwrist -17.2523
rhand -19.5951 11.6231
rfingers 7.12502
rthumb 6.73065 -18.2499
lclavicle 2.22639e-014 -3.10104e-014
lhumerus -35.2192 3.59349 89.9508
lradius 24.2004
lwrist -4.30883
lhand -15.2298 20.1563
lfingers 7.12502
lthumb 10.9431 49.8511
rfemur -10.1278 5.30005 22.6078
rtibia 30.0641
rfoot -16.1905 20.1015
rtoes 22.4155
lfemur -12.1967 -11.0221 -12.1686
ltibia 28.2242
lfoot -9.74972 -18.6147
ltoes 16.9079
3148
root -0.417755 23.8129 0.354875 1072.53 248.522 368.881
lowerback 7.72556 0.543805 2.98131
upperback 1.673 0.932167 4.07385
thorax -2.61928 0.387645 2.45054
lowerneck -13.608 -2.36789 -10.9662
upperneck 36.8964 -4.71526 6.33799
head 15.7213 -3.31447 3.69201
rclavicle 4.36332e-014 3.97569e-015
rhumerus -31.3402 0.504167 -83.5893
rradius 43.0171
rwrist -17.0506
rhand -19.9181 11.3913
rfingers 7.12502
rthumb 6.41892 -18.4915
lclavicle 4.36332e-014 3.97569e-015
lhumerus -35.2941 3.29354 90.3039
lradius 24.1326
lwrist -4.32261
lhand -15.2867 20.078
lfingers 7.12502
lthumb 10.8882 49.7757
rfemur -10.3618 5.54931 22.407
rtibia 30.0371
rfoot -16.6065 20.7183
rtoes 20.0628
lfemur -12.1496 -10.3099 -12.3041
ltibia 28.3019
lfoot -10.2832 -18.1509
ltoes 14.5019
3149
root -0.435551 23.8114 0.398761 1073.12 247.101 368.489
lowerback 7.73262 0.665437 3.00077
upperback 1.68561 1.09346 4.00728
thorax -2.61187 0.467713 2.35431
lowerneck -13.4828 -2.47621 -10.8787
upperneck 36.7005 -4.95945 6.41912
head 15.6228 -3.39497 3.66254
rclavicle -1.2424e-014 1.43125e-014
rhumerus -31.4111 0.616686 -83.5301
rradius 42.8296
rwrist -17.0781
rhand -20.1928 11.3356
rfingers 7.12502
rthumb 6.1537 -18.555
lclavicle -1.2424e-014 1.43125e-014
lhumerus -35.1178 2.77417 90.5664
lradius 24.0416
lwrist -4.30798
lhand -15.5679 20.0952
lfingers 7.12502
lthumb 10.617 49.807
rfemur -10.7365 5.8505 22.2296
rtibia 30.0808
rfoot -16.6154 21.4837
rtoes 19.879
lfemur -12.0361 -9.66751 -12.363
ltibia 28.3323
lfoot -10.637 -17.5039
ltoes 14.9952
3150
root -0.456713 23.8156 0.435393 1073.66 245.724 367.977
lowerback 7.82984 0.814239 2.98257
upperback 1.75426 1.28922 3.85511
thorax -2.59559 0.565872 2.1861
lowerneck -13.3541 -2.61469 -10.8336
upperneck 36.5038 -5.291 6.64352
head 15.5411 -3.5003 3.68848
rclavicle -8.45829e-014 3.02153e-014
rhumerus -31.4372 0.496961 -83.4966
rradius 42.5769
rwrist -17.3774
rhand -20.3502 11.4677
rfingers 7.12502
rthumb 6.0017 -18.4273
lclavicle -8.45829e-014 3.02153e-014
lhumerus -35.0229 1.91339 90.7922
lradius 24.1444
lwrist -4.00538
lhand -15.8948 20.5907
lfingers 7.12502
lthumb 10.3016 50.3184
rfemur -10.9981 5.93126 22.032
rtibia 30.2401
rfoot -16.5017 22.5566
rtoes 20.4696
lfemur -11.7045 -9.30467 -12.4844
ltibia 28.2674
lfoot -10.7045 -16.8811
ltoes 17.8604
3151
root -0.479655 23.8216 0.468384 1073.82 244.504 367.84
lowerback 7.94864 0.903411 3.01467
upperback 1.77104 1.41322 3.82003
thorax -2.64467 0.626051 2.11804
lowerneck -13.1428 -2.69837 -10.8631
upperneck 36.3637 -5.54096 6.86488
head 15.4612 -3.59006 3.7421
rclavicle -1.96797e-014 4.13472e-014
rhumerus -31.4766 0.265021 -83.2508
rradius 42.2767
rwrist -17.5165
rhand -20.0262 11.4965
rfingers 7.12502
rthumb 6.31454 -18.3894
lclavicle -1.96797e-014 4.13472e-014
lhumerus -35.3594 1.44989 90.7885
lradius 24.4717
lwrist -4.21047
lhand -15.4992 20.7391
lfingers 7.12502
lthumb 10.6832 50.4475
rfemur -11.2444 5.9779 21.9426
rtibia 30.5294
rfoot -16.8484 23.5976
rtoes 19.6133
lfemur -11.35 -8.83989 -12.5051
ltibia 28.14
lfoot -10.8776 -16.3426
ltoes 19.2009
3152
root -0.501914 23.8185 0.513603 1074.51 243.278 367.289
lowerback 7.99024 0.928134 2.91321
upperback 1.73243 1.44219 3.7963
thorax -2.71033 0.640941 2.14671
lowerneck -13.022 -2.68812 -10.8888
upperneck 36.302 -5.57962 6.91441
head 15.4088 -3.61414 3.75809
rclavicle -4.37326e-015 -4.92986e-014
rhumerus -31.4152 0.167093 -82.9136
rradius 41.8807
rwrist -17.3128
rhand -19.7915 11.3047
rfingers 7.12502
rthumb 6.54111 -18.5743
lclavicle -4.37326e-015 -4.92986e-014
lhumerus -35.6321 1.62687 90.6099
lradius 24.6886
lwrist -4.77183
lhand -14.6346 20.0497
lfingers 7.12502
lthumb 11.5171 49.7133
rfemur -11.8958 5.54453 21.6572
rtibia 30.9762
rfoot -17.5384 24.2702
rtoes 14.9961
lfemur -11.1567 -8.09727 -12.8286
ltibia 27.941
lfoot -11.0906 -15.5783
ltoes 17.3657
3153
root -0.519981 23.8068 0.559091 1075.65 241.953 366.168
lowerback 8.11715 0.967702 2.52046
upperback 1.73845 1.47025 3.64926
thorax -2.78176 0.659715 2.20981
lowerneck -13.1588 -2.65291 -10.8922
upperneck 36.4518 -5.61371 7.03574
head 15.5231 -3.62842 3.80615
rclavicle 2.68359e-014 1.27222e-014
rhumerus -31.2171 -0.148444 -82.7284
rradius 41.2987
rwrist -16.8372
rhand -19.9314 11.2166
rfingers 7.12502
rthumb 6.40609 -18.6666
lclavicle 2.68359e-014 1.27222e-014
lhumerus -35.7777 0.968063 90.7952
lradius 25.1243
lwrist -3.88925
lhand -14.7623 20.2155
lfingers 7.12502
lthumb 11.394 49.8859
rfemur -12.5631 5.27729 21.0585
rtibia 31.5389
rfoot -18.3063 24.3887
rtoes 7.3654
lfemur -10.8951 -7.18701 -13.4842
ltibia 27.7134
lfoot -11.5413 -14.7648
ltoes 12.6598
3154
root -0.534901 23.7996 0.591387 1076.41 240.664 365.393
lowerback 8.21207 0.996921 2.09546
upperback 1.79353 1.47524 3.53194
thorax -2.78573 0.666635 2.32517
lowerneck -13.2907 -2.66097 -10.9013
upperneck 36.6243 -5.73002 7.17413
head 15.6605 -3.67833 3.84908
rclavicle 4.17448e-015 -5.00937e-014
rhumerus -31.0205 -0.57519 -82.6239
rradius 40.8421
rwrist -16.5507
rhand -20.104 11.2757
rfingers 7.12502
rthumb 6.23945 -18.6124
lclavicle 4.17448e-015 -5.00937e-014
lhumerus -35.8666 0.39596 90.8811
lradius 25.5581
lwrist -3.03489
lhand -15.118 20.6104
lfingers 7.12502
lthumb 11.051 50.2995
rfemur -12.9846 5.48175 20.6024
rtibia 32.1219
rfoot -19.1723 23.874
rtoes 3.29594
lfemur -10.5942 -6.33047 -13.9081
ltibia 27.5148
lfoot -12.1456 -14.2659
ltoes 9.85915
3155
root -0.550426 23.8038 0.620463 1076.69 239.474 365.244
lowerback 8.12954 0.978324 1.89869
upperback 1.87553 1.42416 3.55006
thorax -2.65902 0.641507 2.46148
lowerneck -13.2924 -2.66171 -10.8945
upperneck 36.6015 -5.75464 7.15152
head 15.6511 -3.69896 3.83028
rclavicle -5.77469e-014 3.97569e-015
rhumerus -30.7971 -0.82366 -82.4042
rradius 40.5642
rwrist -16.4265
rhand -20.3063 11.5245
rfingers 7.12502
rthumb 6.04415 -18.3693
lclavicle -5.77469e-014 3.97569e-015
lhumerus -35.8267 0.802946 90.6069
lradius 25.7803
lwrist -3.30644
lhand -14.836 20.0971
lfingers 7.12502
lthumb 11.3229 49.7714
rfemur -13.4595 5.20585 20.5956
rtibia 32.6778
rfoot -20.0362 23.3181
rtoes 6.08416
lfemur -10.4427 -5.7298 -13.9582
ltibia 27.3732
lfoot -12.4754 -13.7623
ltoes 10.4109
3156
root -0.564078 23.8172 0.65525 1077 238.285 365.05
lowerback 8.10873 0.966252 1.74623
upperback 1.92751 1.38977 3.57064
thorax -2.59689 0.624014 2.5728
lowerneck -13.2773 -2.63487 -10.8571
upperneck 36.5846 -5.68906 6.98276
head 15.6221 -3.69595 3.758
rclavicle -8.44835e-014 -3.97569e-015
rhumerus -30.5688 -1.15705 -82.1121
rradius 40.1628
rwrist -16.2327
rhand -20.0555 11.6518
rfingers 7.12502
rthumb 6.28624 -18.235
lclavicle -8.44835e-014 -3.97569e-015
lhumerus -35.8859 0.962251 90.5631
lradius 26.1916
lwrist -2.83309
lhand -15.2034 20.0606
lfingers 7.12502
lthumb 10.9686 49.754
rfemur -13.9322 4.753 20.613
rtibia 33.1935
rfoot -21.009 22.2847
rtoes 1.79308
lfemur -10.3899 -5.09564 -14.0447
ltibia 27.3627
lfoot -12.6777 -13.2925
ltoes 10.6801
3157
root -0.576433 23.8284 0.692015 1077.63 237.122 364.72
lowerback 7.94338 1.00289 1.644
upperback 1.89792 1.42732 3.46964
thorax -2.5369 0.645653 2.52318
lowerneck -13.2887 -2.67361 -10.7576
upperneck 36.6092 -5.81476 6.97649
head 15.6488 -3.74631 3.71326
rclavicle -4.90004e-014 -4.77083e-014
rhumerus -30.3549 -1.71325 -81.8977
rradius 39.6675
rwrist -16.2109
rhand -20.0165 11.6795
rfingers 7.12502
rthumb 6.32389 -18.2061
lclavicle -4.90004e-014 -4.77083e-014
lhumerus -36.2819 -0.141732 90.9506
lradius 27.3585
lwrist -0.839582
lhand -16.0955 21.6207
lfingers 7.12502
lthumb 10.1081 51.3579
rfemur -14.5722 4.37973 20.4751
rtibia 33.7614
rfoot -21.8256 20.3778
rtoes 1.42683
lfemur -10.5697 -4.34963 -14.234
ltibia 27.3928
lfoot -12.7814 -12.9229
ltoes 10.2792
